# xmcd
#
# Track frame offsets:
#	150
#	14947
#	31637
#	49250
#	63126
#	77990
#	92530
#	113477
#	125684
#	141889
#	153311
#	181105
#	187724
#	202493
#	216884
#
# Disc length: 3051
#
# Revision: 5
# Processed by: cddbd v1.5.1PL0 Copyright (c) Steve Scherf et al.
# Submitted via: Grip 3.0.3
# Normalized: r4:DSETVAR2
#
DISCID=cc0be90f
DTITLE=Various Artist - Blues Legends Disc 1
DYEAR=2000
DGENRE=Blues
TTITLE0=Billy Boy Arnold - Don't Stay Out All Night
TTITLE1=Charlie Parker and Miles Davis - Cool Blues
TTITLE2=T-Bone Walker - Afraid To Close My Eyes
TTITLE3=Memphis Slim - Messin' Around
TTITLE4=Billy Boy Arnold - Just A Dream
TTITLE5=Brownie and Sunny - Gonna Lay My Body Down
TTITLE6=Bo Diddley - Evergreen
TTITLE7=Big Joe Williams - Sugar Mama
TTITLE8=Mississippi Fred McDowell - Keep Your Lamp Trimmed and Burning
TTITLE9=Guitar Shorty - Hard Life Blues
TTITLE10=Big Joe Turner - Flip, Flop and Fly
TTITLE11=Magic Sam - 43rd and S. Park Blues
TTITLE12=Mississippi John Hurt - Baby, What's Wrong With You
TTITLE13=Big Bill Broonzy - All I Got Belongs To You
TTITLE14=Lightnin' Slim - Rooster's Blues
EXTD=
EXTT0=
EXTT1=
EXTT2=
EXTT3=
EXTT4=
EXTT5=
EXTT6=
EXTT7=
EXTT8=
EXTT9=
EXTT10=
EXTT11=
EXTT12=
EXTT13=
EXTT14=
PLAYORDER=
